# xmcd
#
# Track frame offsets:
#	150
#	16033
#	28743
#	38209
#	49348
#	60900
#	74885
#	95430
#	107923
#	116898
#	133005
#	146717
#	162717
#	178173
#	193951
#	213317
#	226375
#	240611
#	251116
#	264620
#	275883
#	288848
#
# Disc length: 4059
#
# Revision: 1
# Processed by: cddbd v1.5.1PL0 Copyright (c) Steve Scherf et al.
# Submitted via: EasyCDDAExtractor 4.6.9.1
# Normalized: r0:TDELIM( - )
#
DISCID=620fd916
DTITLE=Various Artist - Lady Sings The Blues Vol 1
DYEAR=2003
DGENRE=Blues
TTITLE0=Dusty Springfield - The Look Of Love
TTITLE1=Julie London - Cry Me A River
TTITLE2=Bobbie Gentry - Son Of A Preacher Man
TTITLE3=Peggy Lee - Why Don't You Do Right (Get Me Some Money Too)
TTITLE4=Erma Franklin - Piece Of My Heart
TTITLE5=Etta James - I Just Wanna Make Love To You
TTITLE6=Glady Knight and The Pips - Midnight Train To Georgia
TTITLE7=Aretha Franklin - Today I Sing The Blues
TTITLE8=Nancy Wilson - Wives and Lovers
TTITLE9=Dinah Shore - My Funny Valentine
TTITLE10=Irma Thomas - I've Been Loving You Too Long
TTITLE11=Ella Fitzgerald - Misty Blue
TTITLE12=Nina Simone - Wild Is The Wind
TTITLE13=Dinah Washington - Drinking Again
TTITLE14=June Christy - Something Cool
TTITLE15=Bettye Swan - Tell It Like It Is
TTITLE16=Billie Holiday - Trav'lin Light
TTITLE17=Kay Starr - Baby Won't You Please Come Home
TTITLE18=Sue Rainey - When Your Lover Has Gone
TTITLE19=Lena Horne/Ray Ellis and Orchestra - In Love In Vain (Centennial Summer)
TTITLE20=Sarah Vaughan - 'Round Midnight
TTITLE21=Tina Turner - Night Time Is The Right Time
EXTD=
EXTT0=
EXTT1=
EXTT2=
EXTT3=
EXTT4=
EXTT5=
EXTT6=
EXTT7=
EXTT8=
EXTT9=
EXTT10=
EXTT11=
EXTT12=
EXTT13=
EXTT14=
EXTT15=
EXTT16=
EXTT17=
EXTT18=
EXTT19=
EXTT20=
EXTT21=
PLAYORDER=
